Coordinates
version=1
nRows=8
nColumns=36
inDegrees=yes

Units are S.I. units (second, meters, Newtons, ...)
If the header above contains a line with 'inDegrees', this indicates whether rotational values are in degrees (yes) or radians (no).

endheader
time	pelvis_tilt	pelvis_list	pelvis_rotation	pelvis_tx	pelvis_ty	pelvis_tz	hip_flexion_r	hip_adduction_r	hip_rotation_r	knee_angle_r	knee_angle_r_beta	ankle_angle_r	subtalar_angle_r	mtp_angle_r	hip_flexion_l	hip_adduction_l	hip_rotation_l	knee_angle_l	knee_angle_l_beta	ankle_angle_l	subtalar_angle_l	mtp_angle_l	lumbar_extension	lumbar_bending	lumbar_rotation	arm_flex_r	arm_add_r	arm_rot_r	elbow_flex_r	pro_sup_r	arm_flex_l	arm_add_l	arm_rot_l	elbow_flex_l	pro_sup_l
      1.86000000	    -17.10239851	     -2.07157790	      0.74893875	     -0.27969588	      0.82261764	     -0.55430717	     61.45131491	      6.59988852	     -0.38631286	     81.27402906	      1.41849940	     34.00263539	    -20.52484179	     -7.49998722	     65.02778931	     -5.75327810	      2.95480173	     80.85822388	      1.41124223	     31.21950737	    -11.93796104	     -7.49998722	    -24.14282211	      5.48006616	      2.48868372	     24.06098607	    -10.91699507	      3.75398119	     53.85660809	    109.68519475	     16.58302922	    -10.29164855	      5.76110496	     54.62054279	     88.82351957
      1.87000000	    -16.63138169	     -1.96994502	      0.93112480	     -0.27687620	      0.82334007	     -0.55437055	     60.71563917	      6.72789473	     -0.05749297	     81.34286616	      1.41970084	     34.18130646	    -20.93544106	     -7.49998734	     64.25720155	     -5.59055009	      2.88393886	     80.77308846	      1.40975634	     31.36065935	    -12.07800227	     -7.49998734	    -24.10200292	      5.15019666	      2.25397428	     24.86781088	    -11.55842786	      4.81477219	     55.29026673	    109.90086945	     17.50624250	    -10.76634920	      6.20152726	     55.75429409	     88.85870496
      1.88000000	    -16.26397946	     -1.89326879	      1.13899955	     -0.27387178	      0.82396625	     -0.55450443	     60.09848770	      6.81827468	      0.21158922	     81.45398564	      1.42164024	     34.19932045	    -21.26085479	     -7.49998752	     63.61044657	     -5.45747481	      2.83142637	     80.71641031	      1.40876712	     31.52619185	    -12.08682182	     -7.49998752	    -23.77926035	      4.88060963	      1.88292641	     25.80289080	    -12.24285656	      5.39305065	     57.20159955	    110.16229463	     18.15650871	    -11.48052954	      6.12707064	     57.89988429	     88.91672331
      1.89000000	    -15.91042895	     -1.77312690	      1.42511339	     -0.27074241	      0.82481139	     -0.55487077	     59.49315008	      6.67926927	      0.33734574	     81.57086984	      1.42368025	     34.36431722	    -21.57518253	     -7.49998764	     62.94422961	     -5.14819941	      2.87554094	     80.61151375	      1.40693633	     31.66749087	    -12.07562753	     -7.49998764	    -23.25870186	      4.61686686	      1.43302607	     26.95136540	    -13.01615718	      5.65225809	     59.34394495	    110.38625993	     19.00436942	    -12.34879650	      5.91403769	     60.27387364	     89.06192175
      1.90000000	    -15.46181841	     -1.67785060	      1.54430263	     -0.26732771	      0.82624447	     -0.55491045	     58.71377291	      6.70979348	      0.55958727	     81.57675550	      1.42378298	     34.40251695	    -21.67988907	     -7.49998778	     62.12575575	     -5.05385612	      2.80837576	     80.49221162	      1.40485411	     31.79216396	    -12.12060042	     -7.49998778	    -22.75876744	      4.31273494	      1.10849729	     28.38298651	    -14.03114145	      5.90709151	     61.80831453	    110.64553169	     19.89379557	    -13.52183102	      5.47902671	     63.43954419	     89.23970341
      1.91000000	    -14.92702633	     -1.53439580	      1.75630745	     -0.26377791	      0.82838801	     -0.55541231	     57.75616652	      6.57814428	      0.74322699	     81.47395619	      1.42198879	     34.52131476	    -21.77122649	     -7.49998801	     61.14046401	     -4.77857767	      2.76528362	     80.24800218	      1.40059186	     31.86676303	    -12.22017605	     -7.49998801	    -22.22841379	      4.04852623	      0.58397290	     30.30786752	    -15.23579343	      6.33473777	     64.24416667	    110.90634903	     21.00526081	    -14.88490480	      4.76606988	     66.95662800	     89.37462217
      1.92000000	    -14.28596719	     -1.33794901	      2.05315483	     -0.26004634	      0.83128709	     -0.55646621	     56.60859906	      6.22374912	      0.82882509	     81.26663521	      1.41837036	     34.61767622	    -21.83297219	     -7.49998816	     59.95452123	     -4.34821004	      2.72961268	     79.86591097	      1.39392311	     31.87388889	    -12.35417689	     -7.49998816	    -21.66879255	      3.81652257	      0.07131996	     32.47146364	    -16.87417634	      6.89010064	     67.01920508	    111.11427398	     22.53955436	    -16.55631956	      4.46387773	     70.57769833	     89.66141768
      1.93000000	    -13.67787645	     -1.15118859	      2.28340304	     -0.25612099	      0.83486083	     -0.55757237	     55.40478560	      5.85142984	      0.88211356	     80.90081701	      1.41198562	     34.66867311	    -21.74465813	     -7.49998831	     58.69613990	     -3.98450895	      2.66163717	     79.31728686	      1.38434781	     31.81830270	    -12.51201275	     -7.49998831	    -20.95397042	      3.58828110	     -0.37814391	     34.97450977	    -18.75881937	      7.50418775	     69.91043638	    111.26525946	     24.32054679	    -18.36852731	      4.13666701	     74.49747466	     90.01259687
